<svg id="Layer_1" data-name="Layer 1" xmlns="http://www.w3.org/2000/svg" viewBox="0 0 719.81 469.9"><defs><style>.cls-1{fill:#dadada;}.cls-1,.cls-2,.cls-3{stroke:#1d1d1b;}.cls-1,.cls-11,.cls-13,.cls-19,.cls-2,.cls-3,.cls-6,.cls-8,.cls-9{stroke-miterlimit:10;}.cls-1,.cls-13,.cls-19,.cls-2,.cls-9{stroke-width:3px;}.cls-13,.cls-19,.cls-2,.cls-6,.cls-8,.cls-9{fill:#fff;}.cls-3{font-size:23px;stroke-width:0.5px;}.cls-10,.cls-14,.cls-20,.cls-3,.cls-7{font-family:MyriadPro-Regular, Myriad Pro;}.cls-4{letter-spacing:-0.01em;}.cls-5{letter-spacing:-0.08em;}.cls-6,.cls-8{stroke:#dadada;}.cls-6{stroke-width:5px;}.cls-7{font-size:18px;}.cls-8{stroke-width:9.48px;}.cls-11,.cls-9{stroke:#be1622;}.cls-10,.cls-14,.cls-20{font-size:16px;}.cls-10{fill:#e30613;}.cls-11{fill:none;stroke-width:2px;}.cls-12{letter-spacing:-0.01em;}.cls-13{stroke:#008d36;}.cls-14{fill:#008d36;}.cls-15{letter-spacing:0.01em;}.cls-16{letter-spacing:0.02em;}.cls-17{letter-spacing:-0.01em;}.cls-18{letter-spacing:0em;}.cls-19{stroke:#662483;}.cls-20{fill:#662483;}.cls-21{letter-spacing:-0.01em;}.cls-22{letter-spacing:-0.01em;}</style></defs><rect class="cls-1" x="1.5" y="1.5" width="330.28" height="466.9" rx="17.61"/><rect class="cls-2" x="8.95" y="50.8" width="316.2" height="404.23" rx="11.82"/><rect class="cls-1" x="371.22" y="1.5" width="330.28" height="466.9" rx="17.61"/><rect class="cls-2" x="378.67" y="50.8" width="316.2" height="404.23" rx="11.82"/><text class="cls-3" transform="translate(8.95 36.87)">NON-SE<tspan class="cls-4" x="75.83" y="0">M</tspan><tspan class="cls-5" x="94.09" y="0">A</tspan><tspan x="106.4" y="0">TIC</tspan></text><text class="cls-3" transform="translate(378.67 37.12)">SE<tspan class="cls-4" x="22.65" y="0">M</tspan><tspan class="cls-5" x="40.92" y="0">A</tspan><tspan x="53.22" y="0">TIC</tspan></text><g id="First_div" data-name="First div"><rect class="cls-6" x="22.63" y="74.04" width="291.55" height="57.75" rx="13.03"/><text class="cls-7" transform="translate(131.43 109.65)">&lt;div&gt;</text></g><g id="First_div-2" data-name="First div"><rect class="cls-6" x="20.87" y="366.99" width="291.55" height="57.75" rx="13.03"/><text class="cls-7" transform="translate(129.67 402.61)">&lt;div&gt;</text></g><rect class="cls-8" x="22.63" y="143.75" width="291.55" height="207.75" rx="13.03"/><text class="cls-7" transform="translate(36.69 172.11)">&lt;div&gt;</text><rect class="cls-9" x="394.46" y="69.11" width="288.03" height="55.63" rx="5.99"/><text class="cls-10" transform="translate(402.02 88.49)">&lt;header&gt;</text><rect class="cls-11" x="488.12" y="84.6" width="185.21" height="33.1"/><text class="cls-10" transform="translate(497.28 104.68)">&lt;n<tspan class="cls-12" x="18.42" y="0">a</tspan><tspan x="26" y="0">v&gt;</tspan></text><rect class="cls-13" x="394.46" y="136.01" width="288.03" height="218.31" rx="6.34"/><text class="cls-14" transform="translate(404.73 155.61)">&lt;se<tspan class="cls-15" x="23.89" y="0">c</tspan><tspan x="31.26" y="0">tion&gt;</tspan></text><rect class="cls-13" x="414.88" y="165.94" width="258.45" height="173.94" rx="7.04"/><text x="-65.54" y="-56.15"/><text class="cls-14" transform="translate(423.5 187.82)">&lt;a<tspan class="cls-16" x="17.25" y="0">r</tspan><tspan x="22.86" y="0">ticle&gt;</tspan></text><rect class="cls-13" x="447.27" y="288.82" width="210.56" height="43.66" rx="5.28"/><text class="cls-14" transform="translate(456.7 310.83)">&lt;figu<tspan class="cls-17" x="35.66" y="0">r</tspan><tspan class="cls-18" x="40.74" y="0">e&gt;</tspan></text><rect class="cls-19" x="394.46" y="369.81" width="288.03" height="71.83" rx="5.99"/><text class="cls-20" transform="translate(405.78 389.83)">&lt;<tspan class="cls-21" x="9.54" y="0">f</tspan><tspan x="14" y="0">oo</tspan><tspan class="cls-22" x="31.57" y="0">t</tspan><tspan class="cls-18" x="36.77" y="0">er&gt;</tspan></text></svg>